<?xml version="1.0" encoding="UTF-8"?>
<svg xmlns="http://www.w3.org/2000/svg" viewBox="0 0 1920 279.99">
  <defs>
    <style>
      .cls-1 {
        fill: #fff;
      }
    </style>
  </defs>
  <g id="Layer_1" data-name="Layer 1">
    <g>
      <path class="cls-1" d="M1690.03,135.77v25.59h-5.89v-17.33l-3.67,2.93-3.19-3.93,8.85-7.26h3.89Z"/>
      <path class="cls-1" d="M1717.02,145.51c0,5.7-3.78,11.85-10.04,16.22l-5-2.22c3-2.33,5.41-4.92,6.78-7.67-1.41.48-3.07.52-4.63.08-3.3-.81-5.55-3.81-5.55-7.56,0-4.59,3.74-8.59,9.04-8.59,5.7,0,9.41,4.19,9.41,9.74ZM1707.61,148.02c2.07,0,3.74-1.22,3.74-3.37s-1.41-3.93-3.63-3.93c-2.11,0-3.48,1.63-3.48,3.74s1.37,3.55,3.37,3.55Z"/>
      <path class="cls-1" d="M1741.24,145.51c0,5.7-3.78,11.85-10.04,16.22l-5-2.22c3-2.33,5.41-4.92,6.78-7.67-1.41.48-3.07.52-4.63.08-3.3-.81-5.55-3.81-5.55-7.56,0-4.59,3.74-8.59,9.04-8.59,5.7,0,9.41,4.19,9.41,9.74ZM1731.83,148.02c2.07,0,3.74-1.22,3.74-3.37s-1.41-3.93-3.63-3.93c-2.11,0-3.48,1.63-3.48,3.74s1.37,3.55,3.37,3.55Z"/>
      <path class="cls-1" d="M1762.43,136.1v4.7h-8.63v4.93c.63-.04.81-.08,1.33-.08,5.07,0,8.41,3.48,8.41,7.82s-3.15,8.22-8.77,8.22c-2.7,0-5.3-.67-7.59-2.15v-4.93c1.71,1.19,4.52,2.37,6.45,2.37,2.67,0,3.93-1.74,3.93-3.48,0-2.52-2.33-3.78-5.07-3.78-1.33,0-2.59.22-3.56.63v-14.26h13.52Z"/>
      <path class="cls-1" d="M1784.44,149.7c0,1.06-.38,1.98-1.13,2.74s-1.67,1.13-2.74,1.13-1.98-.38-2.73-1.13-1.13-1.67-1.13-2.74c0-2.14,1.76-3.87,3.87-3.87s3.87,1.73,3.87,3.87Z"/>
      <path class="cls-1" d="M1811.51,143.55c0,4.92-4.33,9.89-6.7,12.81h8.55v5h-18.11v-.41c4-4.08,10.48-10.96,10.48-16,0-2.81-1.89-4.15-3.78-4.15-2.04,0-4.11,1.11-6,3.3v-5.55c2.82-2.04,5.04-2.78,7.52-2.78,4.63,0,8.04,3.11,8.04,7.78Z"/>
      <path class="cls-1" d="M1837.55,148.73c0,8.52-4.15,12.96-9.3,12.96s-9.3-4.59-9.3-12.93c0-8.74,4.33-13,9.33-13s9.26,4.67,9.26,12.96ZM1828.26,156.95c2.04,0,3.18-2.22,3.18-8.11,0-5.33-.89-8.33-3.22-8.33-1.85,0-3.18,2.22-3.18,8.26,0,5.55.89,8.19,3.22,8.19Z"/>
      <path class="cls-1" d="M1859.12,143.55c0,4.92-4.33,9.89-6.7,12.81h8.55v5h-18.11v-.41c4-4.08,10.48-10.96,10.48-16,0-2.81-1.89-4.15-3.78-4.15-2.04,0-4.11,1.11-6,3.3v-5.55c2.82-2.04,5.04-2.78,7.52-2.78,4.63,0,8.04,3.11,8.04,7.78Z"/>
      <path class="cls-1" d="M1882.54,136.1v4.7h-8.63v4.93c.63-.04.81-.08,1.33-.08,5.07,0,8.41,3.48,8.41,7.82s-3.15,8.22-8.78,8.22c-2.7,0-5.29-.67-7.59-2.15v-4.93c1.7,1.19,4.52,2.37,6.44,2.37,2.67,0,3.93-1.74,3.93-3.48,0-2.52-2.33-3.78-5.07-3.78-1.34,0-2.59.22-3.56.63v-14.26h13.52Z"/>
    </g>
    <g>
      <path class="cls-1" d="M1460.57,187.48c3.33,0,5.33,1.75,5.33,4.63,0,3.21-2.18,4.63-5.71,4.63h-2.25v7.1h-2.35v-16.36h4.99ZM1457.93,194.67h2.16c2.73,0,3.38-1.05,3.38-2.61s-.77-2.52-3.38-2.52h-2.16v5.13Z"/>
      <path class="cls-1" d="M1474.08,187.48c3.26,0,4.97,2.16,4.97,4.56,0,1.9-.93,3.31-2.74,4.03.96.62,1.42,1.01,3,3.41l2.88,4.37h-2.78l-2.59-4.03c-1.66-2.59-2.69-3.09-3.84-3.09h-1.05v7.12h-2.35v-16.36h4.51ZM1471.92,194.65h1.51c1.7,0,3.21-.43,3.21-2.61,0-1.58-.96-2.5-2.73-2.5h-1.99v5.11Z"/>
      <path class="cls-1" d="M1494.81,187.48v2.09h-6.93v4.99h6.69v2.09h-6.69v5.09h7.15v2.11h-9.5v-16.36h9.28Z"/>
      <path class="cls-1" d="M1500.27,187.48l4.97,11.49,4.85-11.49h2.33l-6.91,16.46h-.53l-7.05-16.46h2.35Z"/>
      <path class="cls-1" d="M1525.03,187.48v2.09h-6.93v4.99h6.69v2.09h-6.69v5.09h7.15v2.11h-9.5v-16.36h9.28Z"/>
      <path class="cls-1" d="M1531.6,187.48l10.96,12.69v-12.69h2.25v16.36h-2.04l-10.87-12.59v12.59h-2.25v-16.36h1.94Z"/>
      <path class="cls-1" d="M1562.05,187.48v2.06h-5.71v14.3h-2.35v-14.3h-5.61v-2.06h13.67Z"/>
      <path class="cls-1" d="M1567.97,187.48v16.36h-2.35v-16.36h2.35Z"/>
      <path class="cls-1" d="M1575.11,187.48l10.96,12.69v-12.69h2.25v16.36h-2.04l-10.87-12.59v12.59h-2.25v-16.36h1.94Z"/>
      <path class="cls-1" d="M1607.35,191.05c-1.87-1.1-3.96-1.7-5.8-1.7-3.53,0-6.36,2.69-6.36,6.31s2.69,6.33,6.45,6.33c1.25,0,1.9-.15,3.69-.72v-3.41h-3.14v-2.06h5.49v6.91c-2.04.93-3.96,1.34-6,1.34-6.21,0-8.95-4.39-8.95-8.25,0-4.58,3.5-8.54,8.85-8.54,1.87,0,3.33.34,5.76,1.39v2.4Z"/>
      <path class="cls-1" d="M1620.24,187.48l4.51,11.27,4.54-11.27h2.23l4.56,11.27,4.46-11.27h2.33l-6.62,16.46h-.5l-5.35-13.34-5.4,13.34h-.5l-6.59-16.46h2.35Z"/>
      <path class="cls-1" d="M1651.87,187.38l7.32,16.46h-2.4l-2.18-4.82h-6.96l-2.07,4.82h-2.4l7.03-16.46h1.66ZM1648.54,196.9h5.16l-2.66-6.33-2.49,6.33Z"/>
      <path class="cls-1" d="M1667.03,187.48c3.26,0,4.97,2.16,4.97,4.56,0,1.9-.93,3.31-2.74,4.03.96.62,1.42,1.01,3,3.41l2.88,4.37h-2.78l-2.59-4.03c-1.66-2.59-2.69-3.09-3.84-3.09h-1.05v7.12h-2.35v-16.36h4.51ZM1664.87,194.65h1.51c1.7,0,3.21-.43,3.21-2.61,0-1.58-.96-2.5-2.73-2.5h-1.99v5.11Z"/>
      <path class="cls-1" d="M1681.44,202.68c0,.81-.67,1.46-1.46,1.46-.74,0-1.44-.62-1.44-1.44,0-.89.69-1.46,1.44-1.46s1.46.62,1.46,1.44Z"/>
      <path class="cls-1" d="M1700.95,188.41v2.66c-1.1-1.08-2.38-1.7-3.84-1.7s-2.4.77-2.4,1.9c0,.91.19,1.7,2.69,3.14,3.45,1.99,4.2,3.14,4.2,5.37,0,2.4-1.9,4.27-4.75,4.27-1.61,0-3.12-.55-4.42-1.51v-2.97c1.15,1.51,2.71,2.4,4.42,2.4,1.37,0,2.4-.89,2.4-2.16,0-1.1-.31-1.85-3.55-3.74-2.42-1.42-3.33-2.71-3.33-4.73,0-2.33,2.01-4.08,4.82-4.08,1.34,0,2.64.41,3.77,1.15Z"/>
      <path class="cls-1" d="M1708.37,187.48v7.08h9.19v-7.08h2.35v16.36h-2.35v-7.12h-9.19v7.12h-2.35v-16.36h2.35Z"/>
      <path class="cls-1" d="M1731.94,187.38l7.32,16.46h-2.4l-2.18-4.82h-6.96l-2.07,4.82h-2.4l7.03-16.46h1.66ZM1728.61,196.9h5.16l-2.66-6.33-2.49,6.33Z"/>
      <path class="cls-1" d="M1747.59,187.48c3.33,0,5.32,1.75,5.32,4.63,0,3.21-2.18,4.63-5.71,4.63h-2.26v7.1h-2.35v-16.36h4.99ZM1744.95,194.67h2.16c2.73,0,3.38-1.05,3.38-2.61s-.77-2.52-3.38-2.52h-2.16v5.13Z"/>
      <path class="cls-1" d="M1759,187.48v16.36h-2.35v-16.36h2.35Z"/>
      <path class="cls-1" d="M1766.14,187.48l10.96,12.69v-12.69h2.25v16.36h-2.04l-10.87-12.59v12.59h-2.25v-16.36h1.94Z"/>
      <path class="cls-1" d="M1798.38,191.05c-1.87-1.1-3.96-1.7-5.8-1.7-3.53,0-6.36,2.69-6.36,6.31s2.69,6.33,6.45,6.33c1.25,0,1.9-.15,3.69-.72v-3.41h-3.14v-2.06h5.49v6.91c-2.04.93-3.96,1.34-6,1.34-6.21,0-8.95-4.39-8.95-8.25,0-4.58,3.5-8.54,8.85-8.54,1.87,0,3.33.34,5.76,1.39v2.4Z"/>
      <path class="cls-1" d="M1815.71,187.48c3.33,0,5.33,1.75,5.33,4.63,0,3.21-2.18,4.63-5.71,4.63h-2.25v7.1h-2.35v-16.36h4.99ZM1813.07,194.67h2.16c2.73,0,3.38-1.05,3.38-2.61s-.77-2.52-3.38-2.52h-2.16v5.13Z"/>
      <path class="cls-1" d="M1834,187.48v2.09h-6.93v4.99h6.69v2.09h-6.69v5.09h7.15v2.11h-9.5v-16.36h9.28Z"/>
      <path class="cls-1" d="M1845.91,187.38l7.32,16.46h-2.4l-2.18-4.82h-6.96l-2.07,4.82h-2.4l7.03-16.46h1.66ZM1842.58,196.9h5.16l-2.66-6.33-2.49,6.33Z"/>
      <path class="cls-1" d="M1869.54,188.6v2.47c-1.75-.98-3.67-1.63-5.66-1.63-4,0-6.48,3.04-6.48,6.26s2.38,6.17,6.45,6.17c2.13,0,4.08-.65,5.85-1.83v2.57c-1.92,1.03-3.88,1.44-5.95,1.44-6.02,0-8.8-4.54-8.8-8.37,0-4.8,3.98-8.42,8.85-8.42,1.83,0,3.77.46,5.73,1.34Z"/>
      <path class="cls-1" d="M1883.48,187.48v2.09h-6.93v4.99h6.69v2.09h-6.69v5.09h7.15v2.11h-9.5v-16.36h9.28Z"/>
      <path class="cls-1" d="M1890.85,202.68c0,.81-.67,1.46-1.46,1.46-.74,0-1.44-.62-1.44-1.44,0-.89.69-1.46,1.44-1.46s1.46.62,1.46,1.44Z"/>
    </g>
    <g>
      <path class="cls-1" d="M1838.47,0c-25.26,0-45.69,19.14-45.69,58.95,0,24.78,8.1,41.73,20.61,50.79h50.25c12.39-9,20.49-25.83,20.49-50.79,0-39.45-20.4-58.95-45.66-58.95ZM1838.47,93.21c-10.05,0-12.3-10.08-12.3-33.93,0-27.36,4.86-35.1,12.12-35.1,10.38,0,12.45,12.93,12.45,35.28,0,26.19-3.96,33.75-12.27,33.75Z"/>
      <path class="cls-1" d="M1790.38,84.3c0,11.94-5.34,20.16-13.14,25.44h-63.18v-26.1c9,7.38,18.51,11.25,26.82,11.25,10.38,0,16.8-5.55,16.8-13.26,0-10.41-7.29-15.3-23.37-15.3v-18.45c15.57,0,21.45-5.88,21.45-13.62s-5.88-12.93-14.7-12.93c-8.31,0-16.95,3.36-23.88,7.89V7.23c11.58-5.37,21.96-7.23,32.01-7.23,23.52,0,39.27,11.43,39.27,30.57,0,9.9-6.75,20.31-15.9,25.53,13.14,6.72,17.82,16.62,17.82,28.2Z"/>
    </g>
  </g>
  <g id="Layer_2" data-name="Layer 2">
    <rect class="cls-1" y="108.24" width="1920" height="3"/>
    <rect class="cls-1" y="276.99" width="1920" height="3"/>
  </g>
</svg>